Coordinates
version=1
nRows=5
nColumns=46
inDegrees=yes

Units are S.I. units (second, meters, Newtons, ...)
Angles are in degrees.

endheader
time	pelvis_tilt	pelvis_list	pelvis_rotation	pelvis_tx	pelvis_ty	pelvis_tz	bb_angle	bb_tx	bb_ty	bb_tz	hip_flexion_r	hip_adduction_r	hip_rotation_r	knee_angle_r	knee_angle_r_beta	ankle_angle_r	subtalar_angle_r	mtp_angle_r	crank_angle_r	hip_flexion_l	hip_adduction_l	hip_rotation_l	knee_angle_l	knee_angle_l_beta	ankle_angle_l	subtalar_angle_l	mtp_angle_l	crank_angle_l	lumbar_extension	lumbar_bending	lumbar_rotation	arm_flex_r	arm_add_r	arm_rot_r	elbow_flex_r	pro_sup_r	wrist_flex_r	wrist_dev_r	arm_flex_l	arm_add_l	arm_rot_l	elbow_flex_l	pro_sup_l	wrist_flex_l	wrist_dev_l
      2.50500000	    -11.85138678	     -1.93396726	     -3.97610765	      0.11701922	      1.13475143	     -0.27572965	      0.00000000	      0.50000000	      0.00000000	      0.25000000	     69.73319920	      1.67120786	      3.08356124	     71.31261936	      1.24464001	     13.06664294	    -11.47036475	      0.00000000	      0.00000000	     56.58208020	    -12.65526799	     -0.74113877	     83.05180959	      1.44952753	     -5.10437474	     -4.54829913	      0.00000000	      0.00000000	    -61.00943104	      2.94922705	     -0.35353653	     84.19839118	     -8.88868112	     33.46507336	     53.43922272	     44.34968148	      0.00000000	      0.00000000	     83.55494531	    -24.67717886	     36.49564574	     49.21095762	     46.13720931	      0.00000000	      0.00000000
      2.51000000	    -12.04538229	     -1.64117995	     -3.93755907	      0.11687789	      1.13541698	     -0.27534091	      0.00000000	      0.50000000	      0.00000000	      0.25000000	     68.98061450	      1.41684102	      3.20745608	     69.60331227	      1.21480697	     12.27435320	    -11.26228019	      0.00000000	      0.00000000	     57.31266400	    -12.53077516	     -0.82628490	     84.13872529	      1.46849778	     -4.70024373	     -4.56109766	      0.00000000	      0.00000000	    -60.87992350	      2.78676992	     -0.45706088	     84.10072552	     -9.03647692	     33.25933296	     53.72673920	     44.40529772	      0.00000000	      0.00000000	     83.88729869	    -24.63066646	     37.17192326	     48.89662747	     46.25776323	      0.00000000	      0.00000000
      2.51500000	    -12.10325361	     -1.26348705	     -3.87362559	      0.11698028	      1.13646561	     -0.27501441	      0.00000000	      0.50000000	      0.00000000	      0.25000000	     68.04279455	      1.05777597	      3.35902639	     67.88043880	      1.18473715	     11.49817828	    -11.02562291	      0.00000000	      0.00000000	     57.84371566	    -12.32551539	     -1.00872568	     85.15049426	      1.48615648	     -4.30645255	     -4.60381195	      0.00000000	      0.00000000	    -60.89690066	      2.60417616	     -0.67359190	     84.03742393	     -9.11665238	     33.02457543	     53.94491075	     44.43512119	      0.00000000	      0.00000000	     84.09747175	    -24.47561825	     37.31407817	     48.65433607	     46.27647979	      0.00000000	      0.00000000
      2.52000000	    -12.32773727	     -0.74815613	     -3.77579427	      0.11720989	      1.13722072	     -0.27482395	      0.00000000	      0.50000000	      0.00000000	      0.25000000	     67.31352995	      0.57211543	      3.60495840	     66.20583769	      1.15550985	     10.78587140	    -10.34082456	      0.00000000	      0.00000000	     58.53927297	    -11.97897576	     -1.29538079	     86.16159544	      1.50380353	     -3.87733200	     -4.73626282	      0.00000000	      0.00000000	    -60.79956636	      2.33261686	     -0.99852011	     83.64629528	     -9.19836493	     31.85524929	     54.92313753	     44.46781550	      0.00000000	      0.00000000	     83.77918966	    -24.18478671	     35.98708679	     49.57371375	     46.17385131	      0.00000000	      0.00000000
      2.52500000	    -12.34738432	     -0.51714312	     -3.71169780	      0.11728138	      1.13797547	     -0.27417343	      0.00000000	      0.50000000	      0.00000000	      0.25000000	     66.33065016	      0.37407689	      3.70093791	     64.52043763	      1.12609407	      9.87428369	    -10.34168206	      0.00000000	      0.00000000	     59.17065069	    -11.96665251	     -1.34942313	     87.30815412	      1.52381475	     -3.48614942	     -4.58925623	      0.00000000	      0.00000000	    -60.77428656	      2.19547660	     -1.04712582	     83.90697748	     -9.55071867	     32.77524254	     54.57290949	     44.52224840	      0.00000000	      0.00000000	     84.67175782	    -24.29361075	     38.45112449	     48.17438975	     46.34627918	      0.00000000	      0.00000000
